<?xml version="1.0" encoding="UTF-8"?>
<svg id="Layer_1" xmlns="http://www.w3.org/2000/svg" version="1.1" viewBox="0 0 128 128">
  <!-- Generator: Adobe Illustrator 29.3.1, SVG Export Plug-In . SVG Version: 2.1.0 Build 151)  -->
  <defs>
    <style>
      .st0 {
        fill-rule: evenodd;
      }
    </style>
  </defs>
  <path class="st0" d="M79.85,64.04l22.65-22.66c1.17-1.17,1.17-3.07,0-4.24l-11.6-11.59c-1.17-1.17-3.07-1.17-4.24,0l-22.65,22.66-22.68-22.68c-1.17-1.17-3.07-1.17-4.24,0l-11.6,11.6c-1.17,1.17-1.17,3.07,0,4.24l22.68,22.68-22.6,22.6c-1.17,1.17-1.17,3.07,0,4.24l11.6,11.59c1.17,1.17,3.07,1.17,4.24,0l22.59-22.6,22.57,22.57c1.17,1.17,3.07,1.17,4.24,0l11.6-11.6c1.17-1.17,1.17-3.07,0-4.24l-22.58-22.58Z"/>
</svg>