<?xml version="1.0" encoding="UTF-8"?>
<svg id="Layer_1" xmlns="http://www.w3.org/2000/svg" version="1.1" viewBox="0 0 128 128">
  <!-- Generator: Adobe Illustrator 29.3.1, SVG Export Plug-In . SVG Version: 2.1.0 Build 151)  -->
  <defs>
    <style>
      .st0 {
        fill-rule: evenodd;
      }
    </style>
  </defs>
  <path class="st0" d="M57.6,76.6h13.3c.9,0,1.6-.6,1.6-1.5l5-52c0-.5-.1-.9-.4-1.2-.3-.3-.8-.5-1.2-.5h-23.4c-.5,0-.9.2-1.2.5-.3.3-.5.8-.4,1.2l5,52c0,.8.8,1.5,1.6,1.5ZM64.3,85.1c-6.3,0-11.4,5-11.4,11.2s5.1,11.2,11.4,11.2,11.4-5,11.4-11.2-5.1-11.2-11.4-11.2Z"/>
</svg>