<?xml version="1.0" encoding="UTF-8"?>
<svg id="Layer_1" xmlns="http://www.w3.org/2000/svg" version="1.1" viewBox="0 0 128 128">
  <!-- Generator: Adobe Illustrator 29.3.1, SVG Export Plug-In . SVG Version: 2.1.0 Build 151)  -->
  <defs>
    <style>
      .st0 {
        fill-rule: evenodd;
      }
    </style>
  </defs>
  <path class="st0" d="M77.3,21.86h-26.6c-19.94,0-36.1,16.16-36.1,36.1,0,14.5,8.55,26.99,20.88,32.73v17.14c0,2.63,2.96,4.19,5.14,2.72l24.45-16.49h12.23c19.94,0,36.1-16.16,36.1-36.1s-16.16-36.1-36.1-36.1ZM39.3,67.46c-5.25,0-9.5-4.25-9.5-9.5s4.25-9.5,9.5-9.5,9.5,4.25,9.5,9.5-4.25,9.5-9.5,9.5ZM64,67.46c-5.25,0-9.5-4.25-9.5-9.5s4.25-9.5,9.5-9.5,9.5,4.25,9.5,9.5-4.25,9.5-9.5,9.5ZM88.7,67.46c-5.25,0-9.5-4.25-9.5-9.5s4.25-9.5,9.5-9.5,9.5,4.25,9.5,9.5-4.25,9.5-9.5,9.5Z"/>
</svg>