<?xml version="1.0" encoding="UTF-8"?>
<svg id="Layer_1" xmlns="http://www.w3.org/2000/svg" version="1.1" viewBox="0 0 128 128">
  <!-- Generator: Adobe Illustrator 29.3.1, SVG Export Plug-In . SVG Version: 2.1.0 Build 151)  -->
  <defs>
    <style>
      .st0 {
        fill-rule: evenodd;
      }
    </style>
  </defs>
  <path class="st0" d="M17.17,21.23l4.07-4.07c.75-.75,1.96-.75,2.71,0l86.88,86.91c.75.75.75,1.97,0,2.72l-4.07,4.07c-.75.75-1.96.75-2.71,0L17.17,23.94c-.75-.75-.75-1.97,0-2.72Z"/>
  <path d="M25.26,36.36c-2.07-.78-4.38.26-5.15,2.33-2.81,7.45-4.23,15.38-4.23,23.57s1.42,16.12,4.23,23.57c.6,1.6,2.13,2.59,3.74,2.59.47,0,.95-.08,1.41-.26,2.07-.78,3.11-3.09,2.33-5.15-2.47-6.55-3.72-13.53-3.72-20.75s1.25-14.2,3.72-20.75c.78-2.07-.27-4.37-2.33-5.15Z"/>
  <path d="M7.38,50.89c-2.2-.18-4.13,1.47-4.31,3.67-.22,2.72-.32,5.24-.32,7.71,0,1.74.06,3.58.19,5.78.13,2.12,1.89,3.76,3.99,3.76.08,0,.16,0,.24,0,2.21-.13,3.89-2.03,3.75-4.23-.12-2.04-.18-3.72-.18-5.3,0-2.25.1-4.56.3-7.07.18-2.2-1.46-4.13-3.67-4.31Z"/>
  <path d="M124.92,54.56c-.18-2.2-2.07-3.84-4.31-3.67-2.2.18-3.84,2.11-3.67,4.31.2,2.49.3,4.81.3,7.07,0,1.58-.06,3.26-.18,5.3-.13,2.21,1.55,4.1,3.75,4.23.08,0,.16,0,.24,0,2.1,0,3.86-1.64,3.99-3.76.13-2.2.19-4.04.19-5.78,0-2.48-.11-5-.32-7.71Z"/>
  <path d="M101.09,88.17c.46.17.94.26,1.41.26,1.62,0,3.14-.99,3.74-2.59,2.81-7.45,4.23-15.38,4.23-23.57s-1.42-16.12-4.23-23.57c-.78-2.07-3.09-3.11-5.15-2.33-2.07.78-3.11,3.09-2.33,5.15,2.47,6.55,3.72,13.53,3.72,20.75s-1.25,14.21-3.72,20.75c-.78,2.07.27,4.37,2.33,5.15Z"/>
  <path d="M35,97c0,4.42,3.58,8,8,8h42c2.57,0,4.85-1.22,6.31-3.1l-56.31-56.33v51.43Z"/>
  <path d="M93,29c0-4.42-3.58-8-8-8h-42c-3.09,0-5.76,1.75-7.1,4.32l57.1,57.11V29Z"/>
</svg>