<?xml version="1.0" encoding="UTF-8"?>
<svg id="Layer_1" xmlns="http://www.w3.org/2000/svg" version="1.1" viewBox="0 0 128 128">
  <!-- Generator: Adobe Illustrator 29.3.1, SVG Export Plug-In . SVG Version: 2.1.0 Build 151)  -->
  <defs>
    <style>
      .st0 {
        fill-rule: evenodd;
      }
    </style>
  </defs>
  <path class="st0" d="M64.2,19h-.4c-24.7,0-44.8,20.1-44.8,44.8v.4c0,24.7,20.1,44.8,44.8,44.8h.4c24.7,0,44.8-20.1,44.8-44.8v-.4c0-24.7-20.1-44.8-44.8-44.8ZM64.2,91.8c-4.3,0-7.9-3.5-7.9-7.7s3.5-7.7,7.9-7.7,7.9,3.5,7.9,7.7-3.5,7.7-7.9,7.7ZM69.9,69.4c0,.6-.5,1-1.1,1h-9.2c-.6,0-1.1-.4-1.1-1l-3.4-30.3c0-.3,0-.6.3-.9.2-.2.5-.4.8-.4h16c.3,0,.6.1.8.4.2.2.3.5.3.9l-3.4,30.3Z"/>
</svg>