<?xml version="1.0" encoding="UTF-8"?>
<svg id="Layer_1" xmlns="http://www.w3.org/2000/svg" version="1.1" viewBox="0 0 128 128">
  <!-- Generator: Adobe Illustrator 29.3.1, SVG Export Plug-In . SVG Version: 2.1.0 Build 151)  -->
  <defs>
    <style>
      .st0 {
        fill-rule: evenodd;
      }
    </style>
  </defs>
  <path class="st0" d="M94.2,22.8c0-4.8-4.9-8-9.3-6l-20.9,9.5-20.7-9.4c-4.4-2-9.3,1.2-9.3,6v9.9h60.2v-10ZM102,63h-31c-1.1,0-2,.9-2,2v38c0,1.1.9,2,2,2h25c4.4,0,8-3.6,8-8v-32c0-1.1-.9-2-2-2ZM57,63h-31c-1.1,0-2,.9-2,2v32c0,4.4,3.6,8,8,8h25c1.1,0,2-.9,2-2v-38c0-1.1-.9-2-2-2ZM107,38.1h-36c-1.2,0-2.1.9-2.1,2.1v15.7c0,1.2.9,2.1,2.1,2.1h36c1.2,0,2.1-.9,2.1-2.1v-15.7c0-1.2-.9-2.1-2.1-2.1ZM56.9,38.1H21c-1.2,0-2.1.9-2.1,2.1v15.7c0,1.2.9,2.1,2.1,2.1h36c1.2,0,2.1-.9,2.1-2.1v-15.7c0-1.2-.9-2.1-2.1-2.1Z"/>
</svg>