<?xml version="1.0" encoding="UTF-8"?>
<svg id="Layer_1" xmlns="http://www.w3.org/2000/svg" version="1.1" viewBox="0 0 128 128">
  <!-- Generator: Adobe Illustrator 29.3.1, SVG Export Plug-In . SVG Version: 2.1.0 Build 151)  -->
  <defs>
    <style>
      .st0 {
        fill-rule: evenodd;
      }
    </style>
  </defs>
  <path d="M102.5,88.43c-.47,0-.95-.08-1.41-.26-2.07-.78-3.11-3.09-2.33-5.15,2.47-6.55,3.72-13.53,3.72-20.75s-1.25-14.21-3.72-20.75c-.78-2.07.27-4.37,2.33-5.15,2.06-.78,4.37.27,5.15,2.33,2.81,7.45,4.23,15.38,4.23,23.57s-1.42,16.12-4.23,23.57c-.6,1.6-2.13,2.59-3.74,2.59ZM23.85,88.43c-1.62,0-3.14-.99-3.74-2.59-2.81-7.45-4.23-15.38-4.23-23.57s1.42-16.12,4.23-23.57c.78-2.07,3.08-3.11,5.15-2.33,2.07.78,3.11,3.09,2.33,5.15-2.47,6.55-3.72,13.53-3.72,20.75s1.25,14.21,3.72,20.75c.78,2.07-.27,4.37-2.33,5.15-.46.17-.94.26-1.41.26ZM121.06,71.8c-.08,0-.16,0-.24,0-2.21-.13-3.89-2.03-3.75-4.23.12-2.04.18-3.72.18-5.3,0-2.26-.1-4.57-.3-7.07-.18-2.2,1.46-4.13,3.67-4.31,2.24-.17,4.13,1.47,4.31,3.67.22,2.71.32,5.23.32,7.71,0,1.74-.06,3.58-.19,5.78-.13,2.12-1.89,3.76-3.99,3.76ZM6.93,71.8c-2.1,0-3.86-1.64-3.99-3.76-.13-2.2-.19-4.04-.19-5.78,0-2.47.11-4.99.32-7.71.18-2.2,2.11-3.84,4.31-3.67,2.2.18,3.84,2.11,3.67,4.31-.2,2.5-.3,4.81-.3,7.07,0,1.58.06,3.26.18,5.3.13,2.21-1.55,4.1-3.75,4.23-.08,0-.16,0-.24,0Z"/>
  <path class="st0" d="M43,21h42c4.42,0,8,3.58,8,8v68c0,4.42-3.58,8-8,8h-42c-4.42,0-8-3.58-8-8V29c0-4.42,3.58-8,8-8Z"/>
</svg>