<?xml version="1.0" encoding="UTF-8"?>
<svg id="Layer_1" xmlns="http://www.w3.org/2000/svg" version="1.1" viewBox="0 0 128 128">
  <!-- Generator: Adobe Illustrator 29.3.1, SVG Export Plug-In . SVG Version: 2.1.0 Build 151)  -->
  <defs>
    <style>
      .st0 {
        fill-rule: evenodd;
      }
    </style>
  </defs>
  <path class="st0" d="M64.4,21.9c-13.1,0-23.8,6.6-28.3,18.4-.3,1,.2,1.8,1.2,2.1l14.8,3.4c1,.2,1.6-.2,2.2-1,1.9-3.7,4.9-5.7,9.2-5.7s8.3,3,8.3,7.6-3.6,9.7-13.8,9.7h-3.2c-1,0-1.6.6-1.6,1.7l.3,17.1c0,1,.6,1.6,1.7,1.6h15.1c1,0,1.7-.6,1.7-1.6v-7.5c12.5-2.8,19.5-12.1,19.5-23s-11.2-22.7-27-22.7ZM62.7,84c-6,0-10.9,4.9-10.9,10.9s4.9,10.9,10.9,10.9,10.9-4.9,10.9-10.9-4.9-10.9-10.9-10.9Z"/>
</svg>