<?xml version="1.0" encoding="UTF-8"?>
<svg id="Layer_1" xmlns="http://www.w3.org/2000/svg" version="1.1" viewBox="0 0 128 128">
  <!-- Generator: Adobe Illustrator 29.3.1, SVG Export Plug-In . SVG Version: 2.1.0 Build 151)  -->
  <defs>
    <style>
      .st0 {
        fill-rule: evenodd;
      }
    </style>
  </defs>
  <path class="st0" d="M107.3,79.2l-4.9-9.3c-.6-1.2-2-1.6-3.2-1.1,0,0,0,0,0,0-1.9.9-4.2-.3-4.4-2.5l-2.3-21.1c-1.6-14.8-13.9-26.4-28.8-26.5-14.8,0-27.3,11.1-28.9,25.9l-2.4,21.7c-.2,2.1-2.5,3.4-4.4,2.5,0,0,0,0,0,0-1.2-.6-2.6,0-3.2,1.1l-4.9,9.3c-.6,1.2-.2,2.7,1.1,3.3,9.8,4.9,20,8,30.4,9.4-.4,1.2-.6,2.5-.6,3.8,0,7.1,5.8,12.9,12.9,12.9s12.9-5.8,12.9-12.9-.2-2.6-.6-3.8c10.4-1.4,20.6-4.5,30.4-9.4,1.2-.6,1.7-2.1,1.1-3.3Z"/>
</svg>