<?xml version="1.0" encoding="UTF-8"?>
<svg id="Layer_1" xmlns="http://www.w3.org/2000/svg" version="1.1" viewBox="0 0 128 128">
  <!-- Generator: Adobe Illustrator 29.3.1, SVG Export Plug-In . SVG Version: 2.1.0 Build 151)  -->
  <defs>
    <style>
      .st0 {
        fill-rule: evenodd;
      }
    </style>
  </defs>
  <path class="st0" d="M103,51H25c-1.1,0-2,.9-2,2v48c0,4.4,3.6,8,8,8h66c4.4,0,8-3.6,8-8v-48c0-1.1-.9-2-2-2ZM49,74c0,1.1-.9,2-2,2h-8c-1.1,0-2-.9-2-2v-8c0-1.1.9-2,2-2h8c1.1,0,2,.9,2,2v8ZM70,94c0,1.1-.9,2-2,2h-8c-1.1,0-2-.9-2-2v-8c0-1.1.9-2,2-2h8c1.1,0,2,.9,2,2v8ZM70,74c0,1.1-.9,2-2,2h-8c-1.1,0-2-.9-2-2v-8c0-1.1.9-2,2-2h8c1.1,0,2,.9,2,2v8ZM91,94c0,1.1-.9,2-2,2h-8c-1.1,0-2-.9-2-2v-8c0-1.1.9-2,2-2h8c1.1,0,2,.9,2,2v8ZM25.2,45.4h77.5c1.1,0,2-.9,2-2v-10.2c0-2.2-1.8-4-4-4h-14.2v-9.2c0-1.1-.9-2-2-2h-7.2c-1.1,0-2,.9-2,2v9.2h-22.5v-9.2c0-1.1-.9-2-2-2h-7.2c-1.1,0-2,.9-2,2v9.2h-14.2c-2.2,0-4,1.8-4,4v10.2c0,1.1.9,2,2,2Z"/>
</svg>