<?xml version="1.0" encoding="UTF-8"?>
<svg id="Layer_1" xmlns="http://www.w3.org/2000/svg" version="1.1" viewBox="0 0 128 128">
  <!-- Generator: Adobe Illustrator 29.3.1, SVG Export Plug-In . SVG Version: 2.1.0 Build 151)  -->
  <defs>
    <style>
      .st0 {
        fill-rule: evenodd;
      }
    </style>
  </defs>
  <path class="st0" d="M64,19.1c-24.8,0-45,20.1-45,44.9s20.2,44.9,45,44.9,45-20.1,45-44.9-20.2-44.9-45-44.9ZM71.8,52.6c0-2.8,2.3-5.1,5.1-5.1s5.1,2.3,5.1,5.1v4.1c0,2.8-2.3,5.1-5.1,5.1s-5.1-2.3-5.1-5.1v-4.1ZM45.4,52.6c0-2.8,2.3-5.1,5.1-5.1s5.1,2.3,5.1,5.1v4.1c0,2.8-2.3,5.1-5.1,5.1s-5.1-2.3-5.1-5.1v-4.1ZM83.3,76.6c-3.8,4.1-10.4,8.5-19.6,8.5s-15.8-4.4-19.6-8.5c-1.6-1.7-1.4-4.3.2-5.8,1.7-1.5,4.3-1.4,5.8.2h0c2.6,2.8,7.1,5.8,13.5,5.8s10.9-3,13.5-5.8c1.6-1.7,4.2-1.8,5.8-.2,1.7,1.5,1.8,4.2.2,5.8Z"/>
</svg>