<?xml version="1.0" encoding="UTF-8"?>
<svg id="Layer_1" xmlns="http://www.w3.org/2000/svg" version="1.1" viewBox="0 0 128 128">
  <!-- Generator: Adobe Illustrator 29.3.1, SVG Export Plug-In . SVG Version: 2.1.0 Build 151)  -->
  <defs>
    <style>
      .st0 {
        fill-rule: evenodd;
      }
    </style>
  </defs>
  <path class="st0" d="M63.94,17.87c-23.15.3-41.56,19.65-41.56,42.87v30.6c0,1.29.64,2.5,1.7,3.23l20.66,14.13c2.8,1.91,6.59-.1,6.59-3.5v-27.79c0-2.17-1.75-3.92-3.91-3.92h-11.31c-1.77,0-3.21-1.44-3.21-3.22v-9.6c0-1.95,1.71-3.45,3.64-3.19l18.68,2.53c1.17.16,2.03,1.16,2.03,2.33v17.01c0,.89.37,1.73,1.03,2.33l4.1,3.74c1.2,1.09,3.03,1.09,4.23,0l4.1-3.74c.65-.6,1.03-1.44,1.03-2.33v-17.01c0-1.18.87-2.18,2.03-2.33l18.68-2.53c1.93-.26,3.64,1.24,3.64,3.19v9.6c0,1.78-1.44,3.22-3.21,3.22h-11.31c-2.16,0-3.91,1.76-3.91,3.92v27.79c0,3.4,3.79,5.41,6.59,3.5l20.66-14.13c1.07-.73,1.7-1.94,1.7-3.23v-31.23c0-23.52-19.16-42.55-42.68-42.24Z"/>
</svg>