<?xml version="1.0" encoding="UTF-8"?>
<svg id="Layer_1" xmlns="http://www.w3.org/2000/svg" version="1.1" viewBox="0 0 128 128">
  <!-- Generator: Adobe Illustrator 29.3.1, SVG Export Plug-In . SVG Version: 2.1.0 Build 151)  -->
  <defs>
    <style>
      .st0 {
        fill-rule: evenodd;
      }
    </style>
  </defs>
  <path class="st0" d="M64.2,19h-.4c-24.7,0-44.8,20.1-44.8,44.8v.4c0,24.7,20.1,44.8,44.8,44.8h.4c24.7,0,44.8-20.1,44.8-44.8v-.4c0-24.7-20.1-44.8-44.8-44.8ZM64.4,36.9c3.7,0,6.8,3,6.8,6.8s-3,6.8-6.8,6.8-6.8-3-6.8-6.8,3-6.8,6.8-6.8ZM74.2,91h-21.4c-.7,0-1.1-.8-.6-1.3l4.4-4.5v-18.6l-4-1.3c-.7-.2-.7-1.1-.1-1.4l13.3-7.5c.2-.1.4-.2.6-.2h3.3c.4,0,.7.3.7.7v28.3l4.4,4.5c.5.5.1,1.3-.6,1.3Z"/>
</svg>