<?xml version="1.0" encoding="UTF-8"?>
<svg id="Layer_1" xmlns="http://www.w3.org/2000/svg" version="1.1" viewBox="0 0 128 128">
  <!-- Generator: Adobe Illustrator 29.3.1, SVG Export Plug-In . SVG Version: 2.1.0 Build 151)  -->
  <defs>
    <style>
      .st0 {
        fill-rule: evenodd;
      }
    </style>
  </defs>
  <path class="st0" d="M64.19,19h-.38c-24.75,0-44.81,20.06-44.81,44.81v.37c0,24.75,20.06,44.81,44.81,44.81h.38c24.75,0,44.81-20.06,44.81-44.81v-.37c0-24.75-20.06-44.81-44.81-44.81ZM85.48,76.67c.59.59.59,1.54,0,2.12l-6.68,6.68c-.59.59-1.54.59-2.12,0l-12.68-12.68-12.69,12.7c-.59.59-1.54.59-2.12,0l-6.68-6.68c-.59-.59-.59-1.54,0-2.12l12.69-12.7-12.71-12.71c-.59-.59-.59-1.54,0-2.12l6.68-6.68c.59-.59,1.54-.59,2.12,0l12.71,12.71,12.69-12.7c.59-.59,1.54-.59,2.12,0l6.68,6.68c.59.59.59,1.54,0,2.12l-12.7,12.7,12.68,12.68Z"/>
</svg>