<?xml version="1.0" encoding="UTF-8"?>
<svg id="Layer_1" xmlns="http://www.w3.org/2000/svg" version="1.1" viewBox="0 0 128 128">
  <!-- Generator: Adobe Illustrator 29.3.1, SVG Export Plug-In . SVG Version: 2.1.0 Build 151)  -->
  <defs>
    <style>
      .st0 {
        fill-rule: evenodd;
      }
    </style>
  </defs>
  <path class="st0" d="M40.3,65.5c.3,0,.6-.3.6-.6v-25.3c0-.3-.3-.6-.6-.6H9c-.2,0-.3,0-.5.2-.1.1-.2.3-.1.5,2.6,15,15.6,25.8,30.8,25.8s.7,0,1.2,0ZM114.7,30H49.9c-.3,0-.6.3-.6.6v40.7c0,8.7-7,15.7-15.7,15.7s-.6.3-.6.6v10.8c0,.3.3.6.6.6h67c.3,0,.6-.3.6-.6v-11.4c0-.3-.2-.5-.4-.6-8.1-2.1-13.8-9.5-13.8-18s3.8-13.5,9.8-16.3c3-1.4,14.4-4.5,21-6.3,1.1-.3,1.9-1.3,1.9-2.5v-8.3c0-2.7-2.2-5-5-5Z"/>
</svg>