<?xml version="1.0" encoding="UTF-8"?>
<svg id="Layer_1" xmlns="http://www.w3.org/2000/svg" version="1.1" viewBox="0 0 128 128">
  <!-- Generator: Adobe Illustrator 29.3.1, SVG Export Plug-In . SVG Version: 2.1.0 Build 151)  -->
  <defs>
    <style>
      .st0 {
        fill-rule: evenodd;
      }
    </style>
  </defs>
  <path class="st0" d="M75.06,30.98c1.78-1.32,3.64-3.63,3.64-7.54,0-7.49-11.3-7.85-14.68-7.85h0s-.01,0-.01,0h-.01s0,0,0,0c-3.39,0-14.68.36-14.68,7.85,0,3.9,1.86,6.21,3.64,7.54-17.53,4.84-30.41,20.89-30.41,39.96,0,22.9,18.56,41.47,41.47,41.47s41.47-18.56,41.47-41.47c0-19.07-12.88-35.12-30.4-39.96ZM64,100.61c-16.38,0-29.66-13.28-29.66-29.66s13.28-29.66,29.66-29.66,29.66,13.28,29.66,29.66-13.28,29.66-29.66,29.66ZM64.11,48.15v22.89h-22.91c.05,12.55,10.23,22.7,22.79,22.7s22.8-10.21,22.8-22.8-10.14-22.73-22.68-22.79Z"/>
</svg>