<?xml version="1.0" encoding="UTF-8"?>
<svg id="Layer_1" xmlns="http://www.w3.org/2000/svg" version="1.1" viewBox="0 0 128 128">
  <!-- Generator: Adobe Illustrator 29.3.1, SVG Export Plug-In . SVG Version: 2.1.0 Build 151)  -->
  <defs>
    <style>
      .st0 {
        fill-rule: evenodd;
      }
    </style>
  </defs>
  <path class="st0" d="M63.5,15.6c-19.6,0-35.5,16-35.5,35.7s2.2,14.2,12.5,31.1c6.8,11.1,14.9,21.8,20.4,28.7.9,1.1,2,1.3,2.6,1.3s1.7-.2,2.6-1.3c5.5-7,13.6-17.6,20.4-28.7,10.4-16.9,12.5-26.2,12.5-31.1,0-19.7-15.9-35.7-35.5-35.7ZM63.5,64.1c-7,0-12.7-5.7-12.7-12.8s5.7-12.8,12.7-12.8,12.7,5.7,12.7,12.8-5.7,12.8-12.7,12.8Z"/>
</svg>