<?xml version="1.0" encoding="UTF-8"?>
<svg id="Layer_1" xmlns="http://www.w3.org/2000/svg" version="1.1" viewBox="0 0 128 128">
  <!-- Generator: Adobe Illustrator 29.3.1, SVG Export Plug-In . SVG Version: 2.1.0 Build 151)  -->
  <defs>
    <style>
      .st0 {
        fill-rule: evenodd;
      }
    </style>
  </defs>
  <path class="st0" d="M102.77,24.86c-.07-1.81-1.47-3.26-3.23-3.32l-25.65-.98c-1.12-.04-2.18.49-2.84,1.42l-24.96,41.58-14.09-14.5c-.98-1.01-2.61-.87-3.41.31-3,4.45-7.9,15.55,5.06,29.33l-10.62,10.93c-1.01,1.04-1.01,2.72,0,3.76l4.96,5.1,4.96,5.11c1.01,1.04,2.64,1.04,3.65,0l10.62-10.93c13.38,13.33,24.17,8.3,28.5,5.21,1.14-.82,1.28-2.5.3-3.51l-14.09-14.5,40.4-25.69c.91-.67,1.42-1.77,1.38-2.92l-.95-26.39Z"/>
</svg>