<?xml version="1.0" encoding="UTF-8"?>
<svg id="Layer_1" xmlns="http://www.w3.org/2000/svg" version="1.1" viewBox="0 0 128 128">
  <!-- Generator: Adobe Illustrator 29.3.1, SVG Export Plug-In . SVG Version: 2.1.0 Build 151)  -->
  <defs>
    <style>
      .st0 {
        fill-rule: evenodd;
      }
    </style>
  </defs>
  <path class="st0" d="M107.75,94.61l-13.31-14.97,7.08-7.09c.34-.34.52-.79.53-1.27,0-.48-.19-.93-.53-1.27l-5.91-5.92c-.7-.7-1.83-.7-2.53,0l-4.83,4.83L50.36,26.91c-.48-.54-1.18-.86-1.9-.89l-19.64-.75c-.49-.02-.97.17-1.32.52-.35.35-.54.83-.52,1.32l.75,19.67c.03.72.35,1.41.88,1.9l41.95,37.95-4.83,4.83c-.34.34-.53.79-.53,1.27,0,.48.19.93.52,1.27l5.91,5.92c.7.7,1.83.7,2.53,0l7.08-7.09,14.95,13.33c.44.39.98.58,1.53.58.59,0,1.18-.23,1.62-.67l8.29-8.3c.86-.86.9-2.25.09-3.16ZM85.3,59.39c.14.16.34.24.54.24.17,0,.35-.06.49-.19l11.89-10.76c.54-.49.86-1.18.88-1.9l.75-19.67c.02-.49-.17-.97-.52-1.32-.35-.35-.83-.54-1.32-.52l-19.62.75c-.72.03-1.41.35-1.89.89l-9.8,10.87c-.25.28-.25.7,0,.97l18.61,20.63ZM56.29,86.63l3.31-2.99c.15-.14.24-.33.24-.54s-.09-.4-.24-.54l-17.79-16.09c-.3-.27-.75-.25-1.02.05l-2.16,2.4-4.82-4.83c-.68-.68-1.85-.68-2.53,0l-5.91,5.92c-.7.7-.7,1.84,0,2.53l7.08,7.09-13.3,14.97c-.81.91-.77,2.29.09,3.16l8.28,8.3c.45.45,1.03.67,1.62.67.54,0,1.09-.19,1.52-.58l14.94-13.33,7.08,7.09c.7.7,1.83.7,2.53,0l5.91-5.92c.34-.34.52-.79.52-1.27,0-.48-.19-.93-.52-1.27l-4.82-4.84Z"/>
</svg>