<?xml version="1.0" encoding="UTF-8"?>
<svg id="Layer_1" xmlns="http://www.w3.org/2000/svg" version="1.1" viewBox="0 0 128 128">
  <!-- Generator: Adobe Illustrator 29.3.1, SVG Export Plug-In . SVG Version: 2.1.0 Build 151)  -->
  <defs>
    <style>
      .st0 {
        fill-rule: evenodd;
      }
    </style>
  </defs>
  <path class="st0" d="M108.71,16.93c-3.56.42-10.26,1.56-17.56,4.58-.75.31-1.26,1.02-1.34,1.82-.19,1.89-.35,5.57.61,9.47l-3.7,3.7-.19-.19c-9.68-9.68-24.14-12.82-36.95-7.99-5.38,2.03-10.27,4.09-13.32,5.4-6.35,2.75-12.87,2.06-16.23,1.01-.51-.16-1.06-.03-1.43.34l-1.43,1.43c-.61.61-.52,1.6.15,2.12,1.76,1.36,3.77,2.17,5.89,2.62l29.38,29.38-12.27,12.27-4.74-1.85c-.81-.31-1.72-.12-2.34.49l-9.99,9.99c-1.2,1.2-.61,3.26,1.05,3.63l6.99,1.58,1.58,6.99c.37,1.66,2.43,2.25,3.63,1.05l9.99-9.99c.61-.61.8-1.53.49-2.34l-1.86-4.77,12.26-12.26,28.9,28.9c.14.14.3.24.47.31.44,2.19,1.25,4.27,2.66,6.08.52.68,1.52.76,2.12.15l1.43-1.43c.37-.37.5-.92.34-1.43-1.05-3.36-1.73-9.88,1.01-16.23,1.32-3.05,3.38-7.94,5.4-13.32,4.83-12.81,1.69-27.27-7.99-36.95l-.22-.22,3.67-3.67c3.96.99,7.69.82,9.58.63.79-.08,1.48-.6,1.79-1.33,3.02-7.3,4.16-14,4.58-17.56.17-1.41-1.02-2.6-2.43-2.43ZM31.4,41.5c3.11-.34,6.05-1.02,8.33-1.54,3.22-.74,9.15-.73,14.1-.55,5.24.19,10.21,2.34,13.91,6.05l5.01,5.01-16.19,16.19-25.16-25.16ZM82.6,60.31c3.7,3.7,5.86,8.68,6.05,13.91.18,4.95.18,10.88-.55,14.1-.52,2.28-1.2,5.22-1.54,8.33l-25.19-25.19,16.19-16.19,5.04,5.04Z"/>
</svg>