<?xml version="1.0" encoding="UTF-8"?>
<svg id="Layer_1" xmlns="http://www.w3.org/2000/svg" version="1.1" viewBox="0 0 128 128">
  <!-- Generator: Adobe Illustrator 29.3.1, SVG Export Plug-In . SVG Version: 2.1.0 Build 151)  -->
  <defs>
    <style>
      .st0 {
        fill-rule: evenodd;
      }
    </style>
  </defs>
  <path class="st0" d="M80.63,13.41c-2,0-3.92.79-5.73,2.26v-.34l-31.03,26.9h-12.18c-2.65,0-4.8,2.15-4.8,4.8v32.65c0,2.65,2.15,4.8,4.8,4.8h12.19l31.02,26.89v-.34c1.81,1.47,3.73,2.26,5.73,2.26,10.61,0,19.21-22.36,19.21-49.94s-8.6-49.94-19.21-49.94ZM77.22,74.85c.82,9.42,2.62,18.11,5.22,24.8.28.73.27,1.52-.02,2.24-.3.72-.84,1.28-1.57,1.58-.33.14-.68.21-1.04.21-1.15,0-2.18-.72-2.61-1.83-3.96-10.18-6.14-23.85-6.14-38.5s2.18-28.31,6.13-38.49c.44-1.14,1.5-1.84,2.62-1.84.34,0,.69.07,1.03.21.73.31,1.27.85,1.57,1.58.29.72.3,1.51.02,2.24-2.6,6.7-4.41,15.38-5.22,24.8,6.16.25,11.08,5.3,11.08,11.49s-4.92,11.24-11.08,11.49Z"/>
</svg>