<?xml version="1.0" encoding="UTF-8"?>
<svg id="Layer_1" xmlns="http://www.w3.org/2000/svg" version="1.1" viewBox="0 0 128 128">
  <!-- Generator: Adobe Illustrator 29.3.1, SVG Export Plug-In . SVG Version: 2.1.0 Build 151)  -->
  <defs>
    <style>
      .st0 {
        fill-rule: evenodd;
      }
    </style>
  </defs>
  <path class="st0" d="M107.4,43.9l-23.3-23.3c-.6-.6-1.6-.6-2.3,0l-47.8,47.8c-.6.6-.6,1.6,0,2.3l23.3,23.3c.6.6,1.6.6,2.3,0l47.8-47.8c.6-.6.6-1.6,0-2.3ZM88.1,38.5l-36.2,36.2c-.2.2-.5.2-.6,0l-3.9-3.9c-.2-.2-.2-.5,0-.6l36.2-36.2c.2-.2.5-.2.6,0l3.9,3.9c.2.2.2.5,0,.6ZM29.6,75c-.6-.6-1.6-.6-2.3,0l-2.5,2.5c-.4.4-.7.9-.7,1.5l-3.9,26.6c-.2,1.3.9,2.3,2.2,2.2l26.6-3.9c.6,0,1.1-.3,1.5-.7l2.5-2.5c.6-.6.6-1.6,0-2.3l-23.3-23.3Z"/>
</svg>