<?xml version="1.0" encoding="UTF-8"?>
<svg id="Layer_1" xmlns="http://www.w3.org/2000/svg" version="1.1" viewBox="0 0 128 128">
  <!-- Generator: Adobe Illustrator 29.3.1, SVG Export Plug-In . SVG Version: 2.1.0 Build 151)  -->
  <defs>
    <style>
      .st0 {
        fill-rule: evenodd;
      }
    </style>
  </defs>
  <path class="st0" d="M65,43.5c6,0,10.8-4.8,10.8-10.8s-4.8-10.8-10.8-10.8-10.8,4.8-10.8,10.8,4.8,10.8,10.8,10.8ZM79.5,104.2l-6.2-6.4v-46.4c0-.5-.4-1-1-1h-4.7c-.3,0-.6,0-.9.2l-18.9,10.7c-.8.5-.7,1.7.2,2l5.7,1.9v32.6l-6.2,6.4c-.7.7-.2,1.9.8,1.9h30.4c1,0,1.5-1.2.8-1.9Z"/>
</svg>