<?xml version="1.0" encoding="UTF-8"?>
<svg id="Layer_1" xmlns="http://www.w3.org/2000/svg" version="1.1" viewBox="0 0 128 128">
  <!-- Generator: Adobe Illustrator 29.3.1, SVG Export Plug-In . SVG Version: 2.1.0 Build 151)  -->
  <defs>
    <style>
      .st0 {
        fill: #231f20;
      }
    </style>
  </defs>
  <path class="st0" d="M105.57,21.03c-.44-.25-.98-.25-1.42,0l-26.69,15.3-26.2-15.29c-.44-.26-.98-.26-1.42,0l-27.4,15.7c-.44.25-.71.72-.71,1.23v67.78c0,.51.27.97.71,1.23.22.13.47.19.71.19s.49-.06.7-.19l26.69-15.3,26.2,15.29c.44.26.98.26,1.42,0l27.4-15.7c.44-.25.71-.72.71-1.23V22.26c0-.51-.27-.97-.71-1.23h0ZM38.49,64.2c-2.21,0-4.01-1.81-4.01-4.04s1.8-4.04,4.01-4.04,4.01,1.81,4.01,4.04-1.8,4.04-4.01,4.04ZM49.33,51.17c-2.21,0-4.01-1.81-4.01-4.04s1.8-4.04,4.01-4.04,4.01,1.81,4.01,4.04-1.8,4.04-4.01,4.04ZM62.11,60.72c-2.21,0-4.01-1.81-4.01-4.04s1.8-4.04,4.01-4.04,4.01,1.81,4.01,4.04-1.8,4.04-4.01,4.04ZM92.03,79.05c.37.37.37.96,0,1.33l-5.76,5.81c-.37.37-.97.37-1.34,0l-5.37-5.41-5.37,5.41c-.37.37-.97.37-1.34,0l-5.76-5.81c-.37-.37-.37-.96,0-1.33l5.38-5.42-5.38-5.42c-.37-.37-.37-.97,0-1.33l5.76-5.81c.37-.37.97-.37,1.34,0l5.37,5.41,5.37-5.41c.37-.37.97-.37,1.34,0l5.76,5.81c.37.37.37.97,0,1.33l-5.38,5.42,5.38,5.42Z"/>
</svg>