<?xml version="1.0" encoding="UTF-8"?>
<svg id="Layer_1" xmlns="http://www.w3.org/2000/svg" version="1.1" viewBox="0 0 128 128">
  <!-- Generator: Adobe Illustrator 29.3.1, SVG Export Plug-In . SVG Version: 2.1.0 Build 151)  -->
  <defs>
    <style>
      .st0 {
        fill-rule: evenodd;
      }
    </style>
  </defs>
  <path class="st0" d="M97.1,24h-21.4c-1.7,0-3,1.3-3,3v74.4c0,1.7,1.3,3,3,3h21.4c1.7,0,3-1.3,3-3V27c0-1.7-1.3-3-3-3ZM52.1,24h-21.4c-1.7,0-3,1.3-3,3v74.4c0,1.7,1.3,3,3,3h21.4c1.7,0,3-1.3,3-3V27c0-1.7-1.3-3-3-3Z"/>
</svg>