<?xml version="1.0" encoding="UTF-8"?>
<svg id="Layer_1" xmlns="http://www.w3.org/2000/svg" version="1.1" viewBox="0 0 128 128">
  <!-- Generator: Adobe Illustrator 29.3.1, SVG Export Plug-In . SVG Version: 2.1.0 Build 151)  -->
  <defs>
    <style>
      .st0 {
        fill-rule: evenodd;
      }
    </style>
  </defs>
  <path class="st0" d="M64.2,19h-.4c-24.7,0-44.8,20.1-44.8,44.8v.4c0,24.7,20.1,44.8,44.8,44.8h.4c24.7,0,44.8-20.1,44.8-44.8v-.4c0-24.7-20.1-44.8-44.8-44.8ZM63.1,91.2c-3.9,0-7.1-3.2-7.1-7.1s3.2-7.1,7.1-7.1,7.1,3.2,7.1,7.1-3.2,7.1-7.1,7.1ZM69.1,66.4v4.9c0,.7-.6,1.1-1.2,1.1h-9.8c-.7,0-1.1-.4-1.1-1.1l-.2-11.2c0-.7.4-1.1,1-1.1h2.1c6.6,0,9-2.6,9-6.3s-2.1-5-5.4-5-4.7,1.3-6,3.7c-.4.5-.8.8-1.5.7l-9.6-2.2c-.6-.2-1-.7-.8-1.3,2.9-7.7,9.9-11.9,18.4-11.9s17.6,5.8,17.6,14.8-4.6,13.2-12.6,15Z"/>
</svg>