<?xml version="1.0" encoding="UTF-8"?>
<svg id="Layer_1" xmlns="http://www.w3.org/2000/svg" version="1.1" viewBox="0 0 128 128">
  <!-- Generator: Adobe Illustrator 29.3.1, SVG Export Plug-In . SVG Version: 2.1.0 Build 151)  -->
  <defs>
    <style>
      .st0 {
        fill-rule: evenodd;
      }
    </style>
  </defs>
  <path class="st0" d="M105.8,24.1c-2.8-3.3-8.2-7.1-18.4-7.1-17.8,0-22.5,11.8-22.5,18.1v17H26c-3.3,0-6,2.7-6,6v47c0,3.3,2.7,6,6,6h58c3.3,0,6-2.7,6-6v-47c0-3.3-2.7-6-6-6h-6.9v-17c0-.5.3-2.1,1.5-3.4,2.1-2.3,6-2.7,8.9-2.7,4.3,0,7.5,1,9.1,2.9,1.3,1.5,1.3,3.2,1.3,3.3v15.6c0,.7.6,1.2,1.2,1.2h9.6c.7,0,1.2-.6,1.2-1.2v-15.6c0-1.4-.3-6.4-4.1-10.9ZM58.2,85.4l1.7,6.6c.3,1-.3,2-1.3,2h-7.2c-1,0-1.6-1-1.3-2l1.7-6.6c-3.4-1.3-5.8-4.6-5.8-8.4s4-9,9-9,9,4,9,9-2.4,7.1-5.8,8.4Z"/>
</svg>