<?xml version="1.0" encoding="UTF-8"?>
<svg id="Layer_1" xmlns="http://www.w3.org/2000/svg" version="1.1" viewBox="0 0 128 128">
  <!-- Generator: Adobe Illustrator 29.3.1, SVG Export Plug-In . SVG Version: 2.1.0 Build 151)  -->
  <defs>
    <style>
      .st0 {
        fill-rule: evenodd;
      }
    </style>
  </defs>
  <path class="st0" d="M106.7,25.37c-1.44-1.22-3.33-1.75-5.18-1.44-3.04.5-6.01,1.08-8.86,1.73-.04-2.31-1.24-4.35-3.24-5.5-2.03-1.17-4.43-1.14-6.43.08-9.41,5.74-14.98,12.16-17.49,15.52-.99.62-1.64,1.09-2,1.36-1.96-1.51-12.71-8.99-38.02-13.19-1.85-.31-3.74.22-5.18,1.44-1.46,1.24-2.3,3.05-2.3,4.97v58.66c0,3.23,2.3,5.93,5.47,6.42,20.81,3.23,32.18,8.75,37.11,11.75.9.55,1.91.82,2.92.82s2.02-.27,2.92-.82c4.92-3,16.29-8.52,37.11-11.75,3.17-.49,5.47-3.19,5.47-6.42V30.34c0-1.92-.84-3.73-2.3-4.97ZM86.49,73.2c0,1.01-.55,1.95-1.43,2.44-6.04,3.41-11.32,7.51-15.72,12.19v-46.78c1.47-2.21,6.66-9.27,16.82-15.47.07-.04.12-.05.21,0,.09.05.11.11.11.19v47.43Z"/>
</svg>