<?xml version="1.0" encoding="UTF-8"?>
<svg id="Layer_1" xmlns="http://www.w3.org/2000/svg" version="1.1" viewBox="0 0 128 128">
  <!-- Generator: Adobe Illustrator 29.3.1, SVG Export Plug-In . SVG Version: 2.1.0 Build 151)  -->
  <defs>
    <style>
      .st0 {
        fill-rule: evenodd;
      }
    </style>
  </defs>
  <path class="st0" d="M99.12,16.37l-50.99,15.73c-1.03.32-1.73,1.26-1.73,2.33v12.69h0v32.84l-14.46,3.87c-5.49,1.67-9.32,6.95-9.32,12.84,0,7.38,5.83,13.39,13.01,13.39,9.93,0,18.01-8.32,18.01-18.54l-.07-6.08h.14v-35.1l40.12-12.38v32.88l-14.46,4.86c-5.49,1.67-9.32,6.95-9.32,12.84,0,7.38,5.83,13.39,13.01,13.39,9.93,0,18.01-8.32,18.01-18.54l-.1-8.9h.17V17.84c0-1.03-1.01-1.77-2-1.47Z"/>
</svg>