<?xml version="1.0" encoding="UTF-8"?>
<svg id="Layer_1" xmlns="http://www.w3.org/2000/svg" version="1.1" viewBox="0 0 128 128">
  <!-- Generator: Adobe Illustrator 29.3.1, SVG Export Plug-In . SVG Version: 2.1.0 Build 151)  -->
  <defs>
    <style>
      .st0 {
        fill-rule: evenodd;
      }
    </style>
  </defs>
  <path class="st0" d="M103.44,50.12c-1.16.09-2.32.02-3.22,0-2.69-.06-36.52-.68-46.12-1.35l.23,5.43c2.44,1.91,5.36,4.54,8.37,8.07,1.23,1.44,1.05,3.6-.39,4.83-1.44,1.23-3.61,1.06-4.83-.38-3.64-4.27-7.1-7.03-9.44-8.64-1.3.58-2.73,1.23-4.24,1.92,2.88,2.31,6.86,6,9.92,10.73,1.03,1.59.57,3.71-1.02,4.74-1.59,1.03-3.72.57-4.74-1.01-3.88-6-9.71-10.14-11.18-11.13-3.83,1.87-7.54,3.81-10.27,5.49-8.8,5.41-10.34,15.16-9.79,21.37.55,6.21,1.4,10.83,10.81,11.23,9.37.4,62.88.66,69.55.07,8.48-.75,8.07-6.37,7.37-13.28-.77-7.58-.98-25.65-1.03-38.09ZM102.73,28.49c-4.98-.71-48.89-1.33-48.89-1.33-2.28.2-6.39,1.86-6.12,6.75.27,4.9-.35,8.41,4.28,9.15,4.63.74,45.26,1.48,48.22,1.55,2.96.07,8.56.78,8.61-6.11.05-6.89-1.12-9.31-6.1-10.02Z"/>
</svg>