<?xml version="1.0" encoding="UTF-8"?>
<svg id="Layer_1" xmlns="http://www.w3.org/2000/svg" version="1.1" viewBox="0 0 128 128">
  <!-- Generator: Adobe Illustrator 29.3.1, SVG Export Plug-In . SVG Version: 2.1.0 Build 151)  -->
  <defs>
    <style>
      .st0 {
        fill-rule: evenodd;
      }
    </style>
  </defs>
  <path class="st0" d="M104.89,33.38c-4.5-.64-13-2.75-16.64-9.67-.69-1.31-1.29-2.62-1.74-3.96-.45-1.33-1.74-2.21-3.17-2.21h-38.7c-1.43,0-2.73.88-3.17,2.22-.45,1.34-1.04,2.65-1.74,3.95-3.7,6.81-12.2,8.97-16.67,9.64-1.65.25-2.87,1.64-2.87,3.29v10.95l.02-.02c.5,28.32,17.76,52.59,42.41,63.54.87.39,1.87.39,2.74,0,24.65-10.95,41.92-35.22,42.41-63.54l.02.02v-10.92c0-1.66-1.24-3.05-2.9-3.29ZM95.44,47.36c-.36,20.69-11.88,39.7-29.81,49.94-.51.29-1.07.43-1.64.43s-1.14-.14-1.64-.43c-17.93-10.24-29.45-29.25-29.81-49.94l-.02-1.21v-.22c0-1.36.84-2.58,2.12-3.08,6.47-2.53,11.58-6.49,14.92-11.63.61-.94,1.67-1.5,2.8-1.5h23.24c1.14,0,2.21.57,2.82,1.52,3.32,5.19,8.43,9.17,14.9,11.68,1.29.5,2.14,1.73,2.13,3.1v1.33ZM74.25,36.06h-20.54c-3.46,5.07-8.6,9.1-14.94,11.73v.47c.32,17.54,9.95,33.91,25.22,42.92,15.26-9.01,24.9-25.38,25.21-42.92v-.39c-6.35-2.62-11.5-6.68-14.95-11.81Z"/>
</svg>