<?xml version="1.0" encoding="UTF-8"?>
<svg id="Layer_1" xmlns="http://www.w3.org/2000/svg" version="1.1" viewBox="0 0 128 128">
  <!-- Generator: Adobe Illustrator 29.3.1, SVG Export Plug-In . SVG Version: 2.1.0 Build 151)  -->
  <defs>
    <style>
      .st0 {
        fill-rule: evenodd;
      }
    </style>
  </defs>
  <path class="st0" d="M64.03,19.73c-27.84,0-45.05,20.03-45.05,41.3,0,15.47,5.03,25.24,18.19,30.08l1.62,13.49c.23,1.95,1.92,3.5,3.78,3.5h9.43v-10.59c0-.83.67-1.5,1.5-1.5h3c.83,0,1.5.67,1.5,1.5v10.59h12v-10.59c0-.83.67-1.5,1.5-1.5h3c.83,0,1.5.67,1.5,1.5v10.59h9.54c1.85,0,3.54-1.55,3.78-3.5l1.58-13.17c13.85-4.72,18.19-14.58,18.19-30.4,0-21.27-17.91-41.3-45.05-41.3ZM46.74,78.63c-6.33,0-11.47-5.09-11.47-11.37s5.13-11.37,11.47-11.37,11.47,5.09,11.47,11.37-5.13,11.37-11.47,11.37ZM81.12,78.63c-6.28,0-11.37-5.09-11.37-11.37s5.09-11.37,11.37-11.37,11.37,5.09,11.37,11.37-5.09,11.37-11.37,11.37Z"/>
</svg>