<?xml version="1.0" encoding="UTF-8"?>
<svg id="Layer_1" xmlns="http://www.w3.org/2000/svg" version="1.1" viewBox="0 0 128 128">
  <!-- Generator: Adobe Illustrator 29.3.1, SVG Export Plug-In . SVG Version: 2.1.0 Build 151)  -->
  <defs>
    <style>
      .st0 {
        fill-rule: evenodd;
      }
    </style>
  </defs>
  <path class="st0" d="M38.2,44.8h-16.5c-1.2,0-2.2,1-2.2,2.2v54.5c0,1.2,1,2.2,2.2,2.2h16.5c1.2,0,2.2-1,2.2-2.2v-54.5c0-1.2-1-2.2-2.2-2.2ZM99,45.1l-22.6,3.6v-16c0-7.1-5.7-12.8-12.7-12.8s-4.2,1.9-4.2,4.2v3c0,9.2-5,17.1-12.5,21.3-.7.4-1.1,1.1-1.1,1.9v36.5c0,1.9.8,3.7,2.1,5.1l9.8,9.8c1.3,1.3,3.2,2.1,5.1,2.1h27.3c4.3,0,8.1-2.8,9.4-7,4.3-14.3,7.1-31.8,8.6-42.8.7-5.3-3.9-9.9-9.2-9Z"/>
</svg>