<?xml version="1.0" encoding="UTF-8"?>
<svg id="Layer_1" xmlns="http://www.w3.org/2000/svg" version="1.1" viewBox="0 0 128 128">
  <!-- Generator: Adobe Illustrator 29.3.1, SVG Export Plug-In . SVG Version: 2.1.0 Build 151)  -->
  <defs>
    <style>
      .st0 {
        fill-rule: evenodd;
      }
    </style>
  </defs>
  <path class="st0" d="M62.15,41.85c1.2.34,2.46.34,3.66,0,3.73-1.06,12.41-4.08,19-10.72,1.56-1.58.96-4.26-1.11-5.06-.99-.38-2.17-.78-3.56-1.16-1.07-.29-2.22.02-2.99.81-2.15,2.2-7.04,6.57-12.72,7.38-.29.04-.6.04-.89,0-5.68-.81-10.58-5.18-12.72-7.38-.77-.79-1.92-1.1-2.99-.81-1.39.38-2.57.78-3.56,1.16-2.07.8-2.68,3.49-1.11,5.06,6.59,6.64,15.27,9.67,19,10.72ZM46.97,43.82c1.19-.77,1.29-2.49.2-3.4l-11.18-9.32c-.69-.58-1.61-.84-2.49-.68-12.8,2.36-18.98,9.89-21.19,13.31-.64,1-.67,2.26-.07,3.28l10.37,17.57c.79,1.35,2.71,1.34,3.53,0,6.58-10.74,16.32-17.86,20.83-20.79ZM58.08,46.57c-.93,0-1.86.17-2.72.52-17.84,7.34-24.7,21.05-26.01,24.02-.16.37-.25.77-.26,1.17-.2,8.8.36,4.9.65,8.61.09,1.17.92,2.14,2.05,2.42l31.45,7.69c.48.12.98.12,1.46,0l31.45-7.69c1.13-.28,1.96-1.25,2.05-2.42.29-3.72.85.19.65-8.61,0-.4-.09-.8-.26-1.17-1.31-2.98-8.17-16.68-26.01-24.02-.86-.35-1.79-.52-2.72-.52h-11.78ZM115.66,43.74c-2.21-3.43-8.4-10.96-21.19-13.31-.88-.16-1.8.1-2.49.68l-11.18,9.32c-1.09.91-1,2.62.2,3.4,4.52,2.93,14.25,10.05,20.83,20.79.82,1.33,2.73,1.34,3.53,0l10.37-17.57c.6-1.02.58-2.29-.07-3.28ZM98.47,91.11c-.3-1.13-1.43-1.81-2.56-1.53l-23.5,5.77-9.08,2.06-3.88-1.02c-.11-.05-.19-.12-.31-.15l-4.14-1.02-4.28-1.12-.03.07-18.64-4.57c-1.13-.28-2.26.4-2.56,1.53l-1.87,7.13c-.3,1.15.38,2.32,1.53,2.62l19.66,5.08,14.2,4,11.58-2.92c.36-.02.72-.08,1.09-.17l23.16-5.98c1.14-.3,1.83-1.47,1.53-2.62l-1.87-7.13Z"/>
</svg>