<?xml version="1.0" encoding="UTF-8"?>
<svg id="Layer_1" xmlns="http://www.w3.org/2000/svg" version="1.1" viewBox="0 0 128 128">
  <!-- Generator: Adobe Illustrator 29.3.1, SVG Export Plug-In . SVG Version: 2.1.0 Build 151)  -->
  <defs>
    <style>
      .st0 {
        fill-rule: evenodd;
      }
    </style>
  </defs>
  <path class="st0" d="M96.4,30.5c-18.2-18.2-47.7-18.2-65.9,0-18.2,18.2-18.2,47.7,0,65.9,9.1,9.1,21,13.6,32.9,13.6s23.9-4.5,32.9-13.6c18.2-18.2,18.2-47.7,0-65.9ZM100.2,58.7h-15c-.6-11.9-3.5-22.3-7.7-29.6,12.1,4.9,21,16.1,22.7,29.6ZM63.5,26.4c6.3,0,11.5,14.1,12.2,32.3h-24.5c.8-18.2,6-32.3,12.2-32.3ZM49.5,29.2c-4.2,7.2-7.1,17.7-7.7,29.6h-15c1.7-13.4,10.6-24.6,22.7-29.6ZM26.7,68.2h15c.6,11.9,3.5,22.3,7.7,29.6-12.1-4.9-21-16.1-22.7-29.6ZM63.5,100.5c-6.3,0-11.5-14.1-12.2-32.3h24.5c-.8,18.2-6,32.3-12.2,32.3ZM77.4,97.8c4.2-7.2,7.1-17.7,7.7-29.6h15c-1.7,13.4-10.6,24.6-22.7,29.6Z"/>
</svg>