<?xml version="1.0" encoding="UTF-8"?>
<svg id="Layer_1" xmlns="http://www.w3.org/2000/svg" version="1.1" viewBox="0 0 128 128">
  <!-- Generator: Adobe Illustrator 29.3.1, SVG Export Plug-In . SVG Version: 2.1.0 Build 151)  -->
  <defs>
    <style>
      .st0 {
        fill-rule: evenodd;
      }
    </style>
  </defs>
  <path class="st0" d="M110.2,52.6c-.41-1.24-1.47-2.13-2.75-2.33l-27.89-4.11-12.48-25.64c-.56-1.16-1.77-1.91-3.08-1.91s-2.5.74-3.09,1.93l-12.47,25.62-27.88,4.11c-1.27.19-2.35,1.1-2.74,2.31-.4,1.23-.07,2.61.84,3.5l20.2,19.97-4.77,28.2c-.21,1.28.33,2.59,1.38,3.34,1.06.76,2.48.85,3.63.25l24.91-13.28,24.92,13.29c1.17.61,2.55.52,3.61-.24,1.07-.78,1.61-2.07,1.39-3.36l-4.79-28.2,20.2-19.96c.92-.9,1.25-2.27.85-3.49Z"/>
</svg>