<?xml version="1.0" encoding="UTF-8"?>
<svg id="Layer_1" xmlns="http://www.w3.org/2000/svg" version="1.1" viewBox="0 0 128 128">
  <!-- Generator: Adobe Illustrator 29.3.1, SVG Export Plug-In . SVG Version: 2.1.0 Build 151)  -->
  <defs>
    <style>
      .st0 {
        fill-rule: evenodd;
      }
    </style>
  </defs>
  <path class="st0" d="M31.6,26.8c-7,1.2-12.2,3.4-14.9,4.8-1.4.7-2.2,2.1-2.2,3.6v66.6c0,1.1.9,2,2,2h15c1.1,0,2-.9,2-2V28.4c0-1-.9-1.8-1.9-1.6ZM86,58.8h-45.1c-1.4,0-2.5,1.1-2.5,2.4v40.6c0,1.1.9,2,2,2h46c1.1,0,2-.9,2-2v-40.6c0-1.3-1.1-2.4-2.5-2.4ZM65.5,80.5l1,5.2c.1.6-.3,1.2-1,1.2h-4.1c-.6,0-1.1-.6-1-1.2l1-5.2c-2.3-.8-4-3-4-5.7s2.7-6,6-6,6,2.7,6,6-1.7,4.8-4,5.7ZM111.3,31.6c-2.7-1.4-7.9-3.6-14.9-4.8-1-.2-1.9.6-1.9,1.6v73.4c0,1.1.9,2,2,2h15c1.1,0,2-.9,2-2V35.2c0-1.5-.8-2.9-2.2-3.6Z"/>
  <path class="st0" d="M87.3,25.4c-9.6-1.5-23.8-1.2-23.8-1.2,0,0-13.2-.3-22.8,1.2-1.3.2-2.2,1.3-2.2,2.5v20.1c0,1.2,1,2.2,2.2,2.2h46.7c1.2,0,2.2-1,2.2-2.2v-20.1c0-1.3-.9-2.3-2.2-2.5Z"/>
</svg>