<?xml version="1.0" encoding="UTF-8"?>
<svg id="Layer_1" xmlns="http://www.w3.org/2000/svg" version="1.1" viewBox="0 0 128 128">
  <!-- Generator: Adobe Illustrator 29.3.1, SVG Export Plug-In . SVG Version: 2.1.0 Build 151)  -->
  <defs>
    <style>
      .st0 {
        fill-rule: evenodd;
      }
    </style>
  </defs>
  <path class="st0" d="M104.2,53.1h-29v-29.1c0-1.7-1.3-3-3-3h-16.4c-1.7,0-3,1.3-3,3v29.1h-29c-1.7,0-3,1.3-3,3v16.4c0,1.7,1.3,3,3,3h29v28.9c0,1.7,1.3,3,3,3h16.4c1.7,0,3-1.3,3-3v-28.9h29c1.7,0,3-1.3,3-3v-16.4c0-1.7-1.3-3-3-3Z"/>
</svg>