<?xml version="1.0" encoding="UTF-8"?>
<svg id="Layer_1" xmlns="http://www.w3.org/2000/svg" version="1.1" viewBox="0 0 128 128">
  <!-- Generator: Adobe Illustrator 29.3.1, SVG Export Plug-In . SVG Version: 2.1.0 Build 151)  -->
  <defs>
    <style>
      .st0 {
        fill-rule: evenodd;
      }
    </style>
  </defs>
  <path class="st0" d="M100.91,88.44c1.7,0,3.08-1.37,3.08-3.07V21.61c0-1.45-1.18-2.62-2.63-2.62H34.19c-5.08,0-9.2,4.1-9.2,9.16v66.73c0,7.09,5.65,12.85,12.7,13.08.21-1.55.46-3.93.67-6.98-3.53-.04-6.37-2.93-6.37-6.49s2.89-6.49,6.45-6.49h53.55v12.99h-29.19c-.13,2.09-.32,4.53-.6,7h38.72c1.7,0,3.08-1.37,3.08-3.07v-.54c0-1.69-1.38-3.07-3.08-3.07h-1.89v-12.87h1.89ZM57.99,95h-14.73c-.54,0-.99.44-1.01.99-.3,7.06-.83,12.24-1.24,14.67-.2,1.17.93,2.11,2.03,1.71l6.33-2.29,6.19,2.8c.92.42,1.98-.16,2.14-1.17.96-6.07,1.24-13.05,1.31-15.65.02-.58-.44-1.05-1.01-1.05Z"/>
</svg>