<?xml version="1.0" encoding="UTF-8"?>
<svg id="Layer_1" xmlns="http://www.w3.org/2000/svg" version="1.1" viewBox="0 0 128 128">
  <!-- Generator: Adobe Illustrator 29.3.1, SVG Export Plug-In . SVG Version: 2.1.0 Build 151)  -->
  <defs>
    <style>
      .st0 {
        fill-rule: evenodd;
      }
    </style>
  </defs>
  <path class="st0" d="M64.19,19h-.38c-24.75,0-44.81,20.06-44.81,44.81v.37c0,24.75,20.06,44.81,44.81,44.81h.38c24.75,0,44.81-20.06,44.81-44.81v-.37c0-24.75-20.06-44.81-44.81-44.81ZM90.58,54.44l-30.29,31.82c-1.01.91-2.83,1.04-3.95,0l-17.92-18.61c-.75-.79-.72-2.04.07-2.79l6.8-6.47c.79-.75,2.04-.72,2.79.07l10.5,10.36,22.64-23.43c.76-.78,2.01-.81,2.79-.05l6.52,6.3c.78.76.81,2.01.05,2.79Z"/>
</svg>