<?xml version="1.0" encoding="UTF-8"?>
<svg id="Layer_1" xmlns="http://www.w3.org/2000/svg" version="1.1" viewBox="0 0 128 128">
  <!-- Generator: Adobe Illustrator 29.3.1, SVG Export Plug-In . SVG Version: 2.1.0 Build 151)  -->
  <defs>
    <style>
      .st0 {
        fill-rule: evenodd;
      }
    </style>
  </defs>
  <path class="st0" d="M61.78,43.27c.39.39.9.58,1.41.58s1.02-.19,1.41-.58l8.87-8.84c.38-.37.59-.88.59-1.41s-.21-1.04-.59-1.41l-8.87-8.84c-.78-.78-2.04-.78-2.82,0l-8.87,8.84c-.38.37-.59.88-.59,1.41s.21,1.04.59,1.41l8.87,8.84ZM108.04,50.9c-.62-.41-1.41-.45-2.06-.1l-23.13,12.52-18.17-13.38c-.71-.52-1.67-.52-2.37,0l-18.17,13.38-23.13-12.52c-.65-.35-1.44-.31-2.06.1-.62.41-.95,1.13-.88,1.87l5.05,48.45c.11,1.02.96,1.79,1.99,1.79h76.77c1.02,0,1.88-.77,1.99-1.79l5.05-48.45c.08-.74-.26-1.45-.88-1.87Z"/>
</svg>