<?xml version="1.0" encoding="UTF-8"?>
<svg id="Layer_1" xmlns="http://www.w3.org/2000/svg" version="1.1" viewBox="0 0 128 128">
  <!-- Generator: Adobe Illustrator 29.3.1, SVG Export Plug-In . SVG Version: 2.1.0 Build 151)  -->
  <defs>
    <style>
      .st0 {
        fill-rule: evenodd;
      }
    </style>
  </defs>
  <path class="st0" d="M116.68,69.07c-.3-.58-.9-.92-1.57-.83l-18.64,2.3,9.68-22.04c.23-.53.15-1.14-.21-1.59-.36-.45-.95-.66-1.51-.55l-27.06,5.47-14.99-30.94c-.27-.55-.78-.91-1.43-.87-.61.01-1.15.37-1.39.93l-15.12,34.65-26.14-11.54c-.56-.25-1.2-.15-1.66.26-.46.41-.63,1.03-.45,1.61l11.89,38.4h-15.42c-.63,0-1.19.38-1.43.96-.24.58-.11,1.24.34,1.69l19.07,19.04c.63.63,1.46.97,2.34.97h15.3c.28,0,.55-.12.74-.33.19-.21.28-.49.25-.77l-3.19-28.7,17.3,11.23c.27.18.62.21.92.09l16.72-6.77-9.16,23.9c-.12.31-.08.65.11.92.19.27.49.43.82.43h8.94c.92,0,1.81-.39,2.44-1.07l32.29-35.1c.45-.48.54-1.17.24-1.76Z"/>
</svg>