<?xml version="1.0" encoding="UTF-8"?>
<svg id="Layer_1" xmlns="http://www.w3.org/2000/svg" version="1.1" viewBox="0 0 128 128">
  <!-- Generator: Adobe Illustrator 29.3.1, SVG Export Plug-In . SVG Version: 2.1.0 Build 151)  -->
  <defs>
    <style>
      .st0 {
        fill-rule: evenodd;
      }
    </style>
  </defs>
  <path class="st0" d="M105.52,39.41c-.05-1.12-.8-2.1-1.89-2.46-25.52-8.61-38.47-18.21-38.6-18.3-1.01-.76-2.44-.76-3.45,0-.13.1-12.98,9.66-38.6,18.3-1.09.37-1.84,1.35-1.89,2.46-.05,1.04-.99,25.56,10.95,42.61,11.84,16.93,29.33,25.06,30.07,25.4.38.17.79.26,1.2.26s.82-.09,1.2-.26c.74-.34,18.22-8.47,30.07-25.4,11.94-17.05,10.99-41.58,10.95-42.61Z"/>
</svg>