<?xml version="1.0" encoding="UTF-8"?>
<svg id="Layer_1" xmlns="http://www.w3.org/2000/svg" version="1.1" viewBox="0 0 128 128">
  <!-- Generator: Adobe Illustrator 29.3.1, SVG Export Plug-In . SVG Version: 2.1.0 Build 151)  -->
  <defs>
    <style>
      .st0 {
        fill-rule: evenodd;
      }
    </style>
  </defs>
  <path class="st0" d="M93,53h-57.9c-.6,0-1,.4-1,.9l2,42.3c.2,4.4,3.7,7.7,8.1,7.7h19.4c0,0,20.4,0,20.4,0,4.4,0,7.9-3.4,8.1-7.7l2-42.3c0-.5-.5-.9-1-.9ZM98,35h-19v-3.6c0-5.2-4.4-9.4-9.8-9.4h-10.5c-5.4,0-9.8,4.2-9.8,9.4v3.6h-18c-1.1,0-2,.9-2,2v9c0,1.1.9,2,2,2h67c1.1,0,2-.9,2-2v-9c0-1.1-.9-2-2-2ZM71.2,34.9h-14.4v-2.3c0-1.6,1.4-2.9,3.1-2.9h8.2c1.7,0,3.1,1.3,3.1,2.9v2.3Z"/>
</svg>