<?xml version="1.0" encoding="UTF-8"?>
<svg id="Layer_1" xmlns="http://www.w3.org/2000/svg" version="1.1" viewBox="0 0 128 128">
  <!-- Generator: Adobe Illustrator 29.3.1, SVG Export Plug-In . SVG Version: 2.1.0 Build 151)  -->
  <defs>
    <style>
      .st0 {
        fill-rule: evenodd;
      }
    </style>
  </defs>
  <path class="st0" d="M102.8,56.3h0c-6-17.1-16.4-28.2-20-31.8-.8-.7-2-.7-2.7,0-3.3,3.3-7.9,9.8-7.9,9.8-3.7-5.1-12.3-13.8-15.6-17.1-.7-.7-1.9-.7-2.7,0-4.8,4.6-21.1,20.8-27.4,38.7-1.6,4.4-2.5,9.1-2.5,14.1,0,22.5,18.2,40.7,40.7,40.7s40.7-18.2,40.7-40.7-.8-9.4-2.4-13.7ZM64.5,93.6c-11.5,0-20.8-9.3-20.8-20.8s5.2-13.3,10.4-18c.8-.7,1.9-.6,2.6.2,3.5,4.1,13.7,16.3,15,17.6,0,0,5.7-6,8.3-9.1.6-.7,1.8-.7,2.3.2,1.2,2,3.1,5.5,3.1,9.2,0,11.5-9.3,20.8-20.8,20.8Z"/>
</svg>