<?xml version="1.0" encoding="UTF-8"?>
<svg id="Layer_1" xmlns="http://www.w3.org/2000/svg" version="1.1" viewBox="0 0 128 128">
  <!-- Generator: Adobe Illustrator 29.3.1, SVG Export Plug-In . SVG Version: 2.1.0 Build 151)  -->
  <defs>
    <style>
      .st0 {
        fill-rule: evenodd;
      }
    </style>
  </defs>
  <path class="st0" d="M46.26,100.35l7.26-14.51c-10.81-7.31-17.33-19.4-17.33-32.69,0-5.03.95-9.83,2.67-14.26-13.56.94-24.27,12.21-24.27,26.01,0,10.59,6.31,19.68,15.37,23.77l-7.82,15.66c-1.07,2.14.48,4.65,2.87,4.65h21.25c-1.36-2.72-1.38-5.88,0-8.64ZM91.07,83.82c11.22-5.61,18.93-17.21,18.93-30.61,0-18.89-15.32-34.21-34.21-34.21s-34.21,15.32-34.21,34.21c0,13.4,7.71,24.99,18.93,30.61l-9.48,18.96c-1.42,2.85.65,6.2,3.83,6.2h41.85c3.19,0,5.26-3.35,3.83-6.2l-9.48-18.96ZM70.41,55.88c0,2.49-2.02,4.51-4.51,4.51s-4.51-2.02-4.51-4.51v-5.37c0-2.49,2.02-4.51,4.51-4.51s4.51,2.02,4.51,4.51v5.37ZM90.21,55.88c0,2.49-2.02,4.51-4.51,4.51s-4.51-2.02-4.51-4.51v-5.37c0-2.49,2.02-4.51,4.51-4.51s4.51,2.02,4.51,4.51v5.37Z"/>
</svg>