<?xml version="1.0" encoding="UTF-8"?>
<svg id="Layer_1" xmlns="http://www.w3.org/2000/svg" version="1.1" viewBox="0 0 128 128">
  <!-- Generator: Adobe Illustrator 29.3.1, SVG Export Plug-In . SVG Version: 2.1.0 Build 151)  -->
  <defs>
    <style>
      .st0 {
        fill-rule: evenodd;
      }
    </style>
  </defs>
  <path class="st0" d="M65.49,40.07c-.79-1-2.26-1-3.05,0l-31.67,40.22c-.99,1.26-.13,3.15,1.45,3.15h17.09v24.89c0,1.33,1.06,2.41,2.38,2.41h24.63c1.31,0,2.38-1.08,2.38-2.41v-24.89h17.02c1.57,0,2.44-1.89,1.45-3.15l-31.67-40.22ZM103.61,64.23l-38.12-47.3c-.77-.96-2.22-.96-2.99,0l-38.12,47.3c-.68.85-.11,2.12.96,2.16,2.29.09,4.59.17,6.88.24.75.02,1.48-.3,1.97-.88l29.8-35.49,29.8,35.49c.49.58,1.21.91,1.97.88,2.3-.07,4.59-.15,6.88-.24,1.08-.04,1.65-1.32.96-2.16Z"/>
</svg>