<?xml version="1.0" encoding="UTF-8"?>
<svg id="Layer_1" xmlns="http://www.w3.org/2000/svg" version="1.1" viewBox="0 0 128 128">
  <!-- Generator: Adobe Illustrator 29.3.1, SVG Export Plug-In . SVG Version: 2.1.0 Build 151)  -->
  <path d="M100.26,103.2c1.56,0,2.83-1.27,2.83-2.85v-34.34h0c.45,0,.89-.12,1.28-.35l10.8-6.31c1.11-.65,1.21-2.15.2-2.93l-49.28-38.1c-1.22-.94-2.95-.94-4.17,0L12.63,56.42c-1.01.78-.91,2.28.2,2.93l10.76,6.29c.42.24.89.37,1.38.37h0v34.34c0,1.57,1.27,2.85,2.83,2.85h23.19c1.05,0,1.9-.82,1.9-1.84v-28.33c0-.81.68-1.47,1.52-1.47h19.26c.84,0,1.52.66,1.52,1.47v28.33c0,1.02.85,1.84,1.9,1.84h23.19Z"/>
</svg>