<?xml version="1.0" encoding="UTF-8"?>
<svg id="Layer_1" xmlns="http://www.w3.org/2000/svg" version="1.1" viewBox="0 0 128 128">
  <!-- Generator: Adobe Illustrator 29.3.1, SVG Export Plug-In . SVG Version: 2.1.0 Build 151)  -->
  <defs>
    <style>
      .st0 {
        fill-rule: evenodd;
      }
    </style>
  </defs>
  <path class="st0" d="M95,22h-62c-6.1,0-11,4.9-11,11v62c0,6.1,4.9,11,11,11h62c6.1,0,11-4.9,11-11v-62c0-6.1-4.9-11-11-11ZM98,64.3l-14.8-15.2c-1.4-1.5-3.7-1.5-5.1,0l-20.5,21,4.9,4.9c.9.9.9,2.3,0,3.1h0c-.9.9-2.3.9-3.1,0l-2.5-2.5-14.1-14.1c-1.3-1.3-3.4-1.3-4.7,0l-8,8v-35.5c0-2.3,1.9-4.2,4.2-4.2h59.5c2.3,0,4.2,1.9,4.2,4.2v30.1ZM52,38c-4.4,0-8,3.6-8,8s3.6,8,8,8,8-3.6,8-8-3.6-8-8-8Z"/>
</svg>