<?xml version="1.0" encoding="UTF-8"?>
<svg id="Layer_1" xmlns="http://www.w3.org/2000/svg" version="1.1" viewBox="0 0 128 128">
  <!-- Generator: Adobe Illustrator 29.3.1, SVG Export Plug-In . SVG Version: 2.1.0 Build 151)  -->
  <defs>
    <style>
      .st0 {
        fill-rule: evenodd;
      }
    </style>
  </defs>
  <path class="st0" d="M107.01,26H20.99c-1.1,0-2,.9-2,2v9.99c0,1.1.9,2,2,2h86.01c1.1,0,2-.9,2-2v-9.99c0-1.1-.9-2-2-2ZM107.01,56.99H20.99c-1.1,0-2,.9-2,2v10.02c0,1.1.9,2,2,2h86.01c1.1,0,2-.9,2-2v-10.02c0-1.1-.9-2-2-2ZM107.01,88.01H20.99c-1.1,0-2,.9-2,2v9.99c0,1.1.9,2,2,2h86.01c1.1,0,2-.9,2-2v-9.99c0-1.1-.9-2-2-2Z"/>
</svg>