<?xml version="1.0" encoding="UTF-8"?>
<svg id="Layer_1" xmlns="http://www.w3.org/2000/svg" version="1.1" viewBox="0 0 128 128">
  <!-- Generator: Adobe Illustrator 29.3.1, SVG Export Plug-In . SVG Version: 2.1.0 Build 151)  -->
  <defs>
    <style>
      .st0 {
        fill-rule: evenodd;
      }
    </style>
  </defs>
  <path class="st0" d="M46.39,79.95l-14.46,3.87c-5.49,1.67-9.32,6.95-9.32,12.84,0,7.38,5.83,13.39,13.01,13.39,9.93,0,18.01-8.32,18.01-18.54l-.07-6.08h.14v-21.71l-7.3-7.3v23.53ZM93.81,37.95v32.88l-8.88,2.99,15.24,15.24c.56-1.79.87-3.7.87-5.67l-.1-8.9h.17v-38.78h0v-17.86c0-1.03-1.01-1.77-2-1.47l-50.98,15.73c-1.03.32-1.73,1.26-1.73,2.33v.84l13.22,13.23,34.2-10.55ZM70.02,88.54c0,7.38,5.83,13.39,13.01,13.39,2.58,0,5.04-.57,7.26-1.59l-18.49-18.5c-1.13,2-1.78,4.29-1.78,6.7ZM110.22,102.91L23.34,16.01c-.75-.75-1.96-.75-2.71,0l-4.07,4.07c-.75.75-.75,1.97,0,2.72l86.88,86.91c.75.75,1.96.75,2.71,0l4.07-4.07c.75-.75.75-1.97,0-2.72Z"/>
</svg>