<?xml version="1.0" encoding="UTF-8"?>
<svg id="Layer_1" xmlns="http://www.w3.org/2000/svg" version="1.1" viewBox="0 0 128 128">
  <!-- Generator: Adobe Illustrator 29.3.1, SVG Export Plug-In . SVG Version: 2.1.0 Build 151)  -->
  <defs>
    <style>
      .st0 {
        fill-rule: evenodd;
      }
    </style>
  </defs>
  <path class="st0" d="M113.5,74.84h-30.5v-18.58c0-.83-.67-1.51-1.5-1.51h-34c-.83,0-1.5.68-1.5,1.51v18.58H15.5c-.83,0-1.5.68-1.5,1.51v30.13c0,.83.67,1.51,1.5,1.51h98c.83,0,1.5-.68,1.5-1.51v-30.13c0-.83-.67-1.51-1.5-1.51ZM49.56,41.76h30.47c.77,0,1.41-.58,1.49-1.35l1.96-18.87c.03-.32-.11-.64-.38-.82-.27-.18-.62-.2-.9-.04,0,0,0,0,0,0l-9.29,5.06-7.23-5.35c-.53-.39-1.24-.39-1.76,0l-7.23,5.35-9.29-5.06c-.28-.15-.63-.14-.9.04-.27.18-.42.49-.38.82l1.96,18.87c.08.77.72,1.35,1.49,1.35Z"/>
</svg>