<?xml version="1.0" encoding="UTF-8"?>
<svg id="Layer_1" xmlns="http://www.w3.org/2000/svg" version="1.1" viewBox="0 0 128 128">
  <!-- Generator: Adobe Illustrator 29.3.1, SVG Export Plug-In . SVG Version: 2.1.0 Build 151)  -->
  <defs>
    <style>
      .st0 {
        fill-rule: evenodd;
      }
    </style>
  </defs>
  <path class="st0" d="M108.37,96.01l-23.07-23.1c3.2-5.35,5.04-11.61,5.04-18.3,0-19.74-16-35.73-35.73-35.73s-35.73,16-35.73,35.73,16,35.73,35.73,35.73c6.71,0,12.99-1.86,18.36-5.08l23.07,23.09c1.01,1.02,2.66,1.02,3.67,0l8.66-8.67c1.01-1.02,1.01-2.66,0-3.68ZM54.6,77.17c-12.46,0-22.56-10.1-22.56-22.56s10.1-22.56,22.56-22.56,22.56,10.1,22.56,22.56-10.1,22.56-22.56,22.56Z"/>
</svg>