<?xml version="1.0" encoding="UTF-8"?>
<svg id="Layer_1" xmlns="http://www.w3.org/2000/svg" version="1.1" viewBox="0 0 128 128">
  <!-- Generator: Adobe Illustrator 29.3.1, SVG Export Plug-In . SVG Version: 2.1.0 Build 151)  -->
  <defs>
    <style>
      .st0 {
        fill-rule: evenodd;
      }
    </style>
  </defs>
  <path class="st0" d="M111.55,59.97l-6.38-19.39c-.45-1.38-1.86-2.21-3.29-1.94l-11.45,2.12c-3.05-3.26-6.72-5.93-10.82-7.84l-1.57-11.43c-.2-1.43-1.43-2.5-2.88-2.5l-20.5.05c-1.46,0-2.69,1.08-2.88,2.52l-1.48,11.21c-4.25,1.93-8.03,4.67-11.16,8.03l-11.13-2c-1.43-.26-2.83.58-3.28,1.96l-6.29,19.42c-.44,1.37.2,2.86,1.51,3.48l10.01,4.74c.53,4.84,2.06,9.38,4.37,13.42l-5.21,9.66c-.69,1.27-.32,2.86.86,3.7l16.61,11.94c1.18.85,2.82.7,3.82-.36l7.55-7.93c2.22.44,4.5.68,6.85.68,2.52,0,4.97-.28,7.34-.78l7.67,7.96c1.01,1.05,2.64,1.19,3.82.34l16.56-12.03c1.17-.85,1.53-2.43.83-3.7l-5.45-9.97c2.15-3.9,3.56-8.26,4.07-12.89l10.41-5c1.3-.63,1.94-2.12,1.49-3.49ZM64.8,78.72c-7.84,0-14.19-6.33-14.19-14.14s6.35-14.14,14.19-14.14,14.19,6.33,14.19,14.14-6.35,14.14-14.19,14.14Z"/>
</svg>