<?xml version="1.0" encoding="UTF-8"?>
<svg id="Layer_1" xmlns="http://www.w3.org/2000/svg" version="1.1" viewBox="0 0 128 128">
  <!-- Generator: Adobe Illustrator 29.3.1, SVG Export Plug-In . SVG Version: 2.1.0 Build 151)  -->
  <defs>
    <style>
      .st0 {
        fill-rule: evenodd;
      }
    </style>
  </defs>
  <path class="st0" d="M77.19,24.87c.44-1.14,1.5-1.84,2.62-1.84.34,0,.69.07,1.03.21.73.31,1.27.85,1.57,1.58.29.72.3,1.51.02,2.24-2.6,6.7-4.41,15.38-5.22,24.8,6.16.25,11.08,5.3,11.08,11.49,0,3.76-1.81,7.08-4.61,9.18l13.96,13.97c1.39-6.92,2.19-14.79,2.19-23.14,0-27.58-8.6-49.94-19.21-49.94-2,0-3.92.79-5.73,2.26v-.34l-25.92,22.47,22.14,22.14c.31-13.35,2.44-25.7,6.09-35.08ZM82.42,99.65c.28.73.27,1.52-.02,2.24-.29.72-.84,1.28-1.57,1.58-.33.14-.68.21-1.04.21-1.15,0-2.18-.72-2.61-1.83-2.17-5.59-3.8-12.23-4.84-19.5l-40.11-40.12h-.57c-2.65,0-4.8,2.15-4.8,4.8v32.65c0,2.65,2.15,4.8,4.8,4.8h12.19l31.02,26.89v-.34c1.81,1.47,3.73,2.26,5.73,2.26,4.5,0,8.63-4.03,11.91-10.76l-13.12-13.12c.83,3.74,1.84,7.2,3.02,10.24ZM110.25,102.91L23.37,16.01c-.75-.75-1.96-.75-2.71,0l-4.07,4.07c-.75.75-.75,1.97,0,2.72l86.88,86.91c.75.75,1.96.75,2.71,0l4.07-4.07c.75-.75.75-1.97,0-2.72Z"/>
</svg>