<?xml version="1.0" encoding="UTF-8"?>
<svg id="Layer_1" xmlns="http://www.w3.org/2000/svg" version="1.1" viewBox="0 0 128 128">
  <!-- Generator: Adobe Illustrator 29.3.1, SVG Export Plug-In . SVG Version: 2.1.0 Build 151)  -->
  <defs>
    <style>
      .st0 {
        fill-rule: evenodd;
      }
    </style>
  </defs>
  <path class="st0" d="M99.48,50.87c-.58-11.56-6.67-21.67-15.7-27.76-5.7-3.85-12.58-6.11-19.98-6.11-19.73,0-35.73,16-35.73,35.73,0,14,8.05,26.1,19.77,31.97l-9.9,19.8c-1.31,2.62.21,5.64,2.85,6.33.39.11.8.17,1.23.17h43.58c.64,0,1.24-.13,1.77-.36,2.28-.95,3.49-3.72,2.28-6.14l-9.9-19.8c10.95-5.48,18.69-16.41,19.66-29.23,0-.1.02-.21.02-.31.05-.8.09-1.61.09-2.42,0-.62-.02-1.25-.05-1.86ZM58.17,55.52c0,2.6-2.11,4.71-4.71,4.71s-4.71-2.11-4.71-4.71v-5.61c0-2.6,2.11-4.71,4.71-4.71s4.71,2.11,4.71,4.71v5.61ZM78.85,55.52c0,2.6-2.11,4.71-4.71,4.71s-4.71-2.11-4.71-4.71v-5.61c0-2.6,2.11-4.71,4.71-4.71s4.71,2.11,4.71,4.71v5.61Z"/>
</svg>